# AST/ASF file generated using VICON BodyLanguage
# -----------------------------------------------
:version 1.10
:name VICON
:units
  mass 1.0
  length 0.45
  angle deg
:documentation
   .ast/.asf automatically generated from VICON data using
   VICON BodyBuilder and BodyLanguage model FoxedUp or BRILLIANT.MOD
:root
   order TX TY TZ RX RY RZ
   axis XYZ
   position 0 0 0  
   orientation 0 0 0 
:bonedata
  begin
     id 1 
     name lhipjoint
     direction 0.54267 -0.795011 0.271047 
     length 2.39899 
     axis 0 0 0  XYZ
  end
  begin
     id 2 
     name lfemur
     direction 0.34202 -0.939693 0  
     length 7.49701  
     axis 0 0 20  XYZ
    dof rx ry rz
    limits (-160.0 20.0)
           (-70.0 70.0)
           (-60.0 70.0)
  end
  begin
     id 3 
     name ltibia
     direction 0.34202 -0.939693 0   
     length 8.1668   
     axis 0 0 20   XYZ
    dof rx
    limits (-10.0 170.0)
  end
  begin
     id 4 
     name lfoot
     direction 0.0736283 -0.202292 0.976554   
     length 2.13544   
     axis -90 7.62852e-016 20   XYZ
    dof rx rz
    limits (-45.0 90.0)
           (-70.0 20.0)
  end
  begin
     id 5 
     name ltoes
     direction 1.53557e-011 -4.22024e-011 1   
     length 1.07411   
     axis -90 7.62852e-016 20   XYZ
    dof rx
    limits (-90.0 20.0)
  end
  begin
     id 6 
     name rhipjoint
     direction -0.538061 -0.797813 0.272002   
     length 2.39057  
     axis 0 0 0  XYZ 
  end
  begin
     id 7 
     name rfemur
     direction -0.34202 -0.939693 0   
     length 7.50152   
     axis 0 0 -20   XYZ
    dof rx ry rz
    limits (-160.0 20.0)
           (-70.0 70.0)
           (-70.0 60.0)
  end
  begin
     id 8 
     name rtibia
     direction -0.34202 -0.939693 0   
     length 8.05793   
     axis 0 0 -20   XYZ
    dof rx
    limits (-10.0 170.0)
 end
 begin
     id 9 
     name rfoot
     direction -0.0765195 -0.210236 0.974652   
     length 2.28698  
     axis -90 -7.62852e-016 -20   XYZ
    dof rx rz
    limits (-45.0 90.0)
           (-20.0 70.0)
  end
  begin
     id 10 
     name rtoes
     direction -1.53542e-011 -4.21847e-011 1   
     length 1.14762   
     axis -90 -7.62852e-016 -20   XYZ
    dof rx
    limits (-90.0 20.0)
  end
  begin
     id 11 
     name lowerback
     direction -0.0217239 0.996592 -0.0795765   
     length 2.08176   
     axis 0 0 0   XYZ
    dof rx ry rz
    limits (-20.0 45.0)
           (-30.0 30.0)
           (-30.0 30.0)
  end
  begin
     id 12 
     name upperback
     direction -0.00563773 0.999651 -0.0258155   
     length 2.08898   
     axis 0 0 0   XYZ
    dof rx ry rz
    limits (-20.0 45.0)
           (-30.0 30.0)
           (-30.0 30.0)
  end
  begin
     id 13 
     name thorax
     direction 0.0032706 0.999923 0.0119599   
     length 2.0968   
     axis 0 0 0   XYZ
    dof rx ry rz
    limits (-20.0 45.0)
           (-30.0 30.0)
           (-30.0 30.0)
  end
  begin
     id 14 
     name lowerneck
     direction -0.0285886 0.99568 0.0883427   
     length 1.81272   
     axis 0 0 0   XYZ
    dof rx ry rz
    limits (-20.0 45.0)
           (-30.0 30.0)
           (-30.0 30.0)
  end
  begin
     id 15 
     name upperneck
     direction 0.0807535 0.97985 -0.18268   
     length 1.82518   
     axis 0 0 0   XYZ
    dof rx ry rz
    limits (-20.0 45.0)
           (-30.0 30.0)
           (-30.0 30.0)
  end
  begin
     id 16
     name head
     direction 0.0236605 0.997053 -0.0729767  
     length 1.84443  
     axis 0 0 0   XYZ
    dof rx ry rz
    limits (-20.0 45.0)
           (-30.0 30.0)
           (-30.0 30.0)
  end
  begin
     id 17 
     name lclavicle
     direction 0.918986 0.39378 -0.0200683  
     length 3.27822  
     axis 0 0 0   XYZ
    dof ry rz
    limits (-20.0 10.0)
           (0.0 20.0)
  end
  begin
     id 18 
     name lhumerus
     direction 1 -4.4897e-011 2.09544e-027   
     length 5.5568   
     axis 180 -30 -90   XYZ
    dof rx ry rz
    limits (-60.0 90.0)
           (-90.0 90.0)
           (-90.0 90.0)
  end
  begin
     id 19
     name lradius
     direction 1 -4.48957e-011 -1.27696e-026   
     length 3.63979   
     axis 180 -30 -90   XYZ
    dof rx
    limits (-10.0 170.0)
  end
  begin
     id 20
     name lwrist
     direction 1 -4.49001e-011 -1.49001e-026   
     length 1.8199   
     axis 9.0955e-015 90 90   XYZ
    dof ry
    limits (-180.0 0.0)
 end
  begin
     id 21 
     name lhand
     direction 1 -4.48709e-011 -2.9758e-026   
     length 0.569419   
     axis 1.90115e-014 90 90   XYZ
    dof rx rz
    limits (-90.0 90.0)
           (-45.0 45.0)
  end
  begin
     id 22 
     name lfingers
     direction 1 -4.49175e-011 -5.96505e-026   
     length 0.45908   
     axis 3.80223e-014 90 90   XYZ
    dof rx
    limits (0.0 90.0)
  end
  begin
     id 23
     name lthumb
     direction 0.707107 -6.34864e-011 0.707107   
     length 0.65915   
     axis -90 45 -3.84942e-014   XYZ
    dof rx rz
    limits (-45.0 45.0)
           (-45.0 45.0)
  end
  begin
     id 24 
     name rclavicle
     direction -0.911913 0.396426 -0.106115   
     length 3.46301  
     axis 0 0 0   XYZ 
    dof ry rz
    limits (-10.0 20.0)
           (-20.0 0.0)
  end
  begin
     id 25 
     name rhumerus
     direction -1 -4.48965e-011 7.78516e-028  
     length 5.34339   
     axis 180 30 90   XYZ
    dof rx ry rz
    limits (-90.0 60.0)
           (-90.0 90.0)
           (-90.0 90.0)
  end
  begin
     id 26 
     name rradius
     direction -1 -4.48948e-011 -5.79823e-027   
     length 3.65101   
     axis 180 30 90   XYZ
    dof rx
    limits (-10.0 170.0)
  end
  begin
     id 27 
     name rwrist
     direction -1 -4.48995e-011 -1.48996e-026   
     length 1.8255   
     axis 9.0955e-015 -90 -90   XYZ
    dof ry
    limits (-180.0 0.0)
  end
  begin
     id 28
     name rhand
     direction -1 -4.48957e-011 -2.97937e-026   
     length 0.694249   
     axis 1.90115e-014 -90 -90   XYZ
    dof rx rz
    limits (-90.0 90.0)
           (-45.0 45.0)
  end
  begin
     id 29
     name rfingers
     direction -1 -4.4898e-011 -5.95943e-026   
     length 0.559721   
     axis 3.80223e-014 -90 -90   XYZ
    dof rx
    limits (0.0 90.0)
  end
  begin
     id 30
     name rthumb
     direction -0.707107 -6.34969e-011 0.707107   
     length 0.803651   
     axis -90 -45 3.84942e-014   XYZ
    dof rx rz
    limits (-45.0 45.0)
           (-45.0 45.0)
  end
:hierarchy
  begin
    root lhipjoint rhipjoint lowerback
    lhipjoint lfemur
    lfemur ltibia
    ltibia lfoot
    lfoot ltoes
    rhipjoint rfemur
    rfemur rtibia
    rtibia rfoot
    rfoot rtoes
    lowerback upperback
    upperback thorax
    thorax lowerneck lclavicle rclavicle
    lowerneck upperneck
    upperneck head
    lclavicle lhumerus
    lhumerus lradius
    lradius lwrist
    lwrist lhand lthumb
    lhand lfingers
    rclavicle rhumerus
    rhumerus rradius
    rradius rwrist
    rwrist rhand rthumb
    rhand rfingers
  end

#!OML:ASF H:\Terrain\Walking\May29\JustinRory\rory.ASF
:FULLY-SPECIFIED
:DEGREES
353
root 14.5803 14.4276 4.34878 -164.997 -85.9853 194.65
lowerback 44.3521 -0.141568 1.47339
upperback 19.0198 -2.64416 3.41306
thorax 0.77686 -2.55926 3.78435
lowerneck -8.16866 -23.1944 -10.0597
upperneck 7.33467 -35.5835 34.9677
head 12.9895 -15.6387 6.80593
rclavicle -6.36111e-014 -3.42904e-014
rhumerus 67.5287 -13.831 -105.493
rradius 108.078
rwrist -87.5663
rhand -1.90925 25.342
rfingers 7.12502
rthumb 23.7604 -3.20903
lclavicle -6.36111e-014 -3.42904e-014
lhumerus 75.3444 -28.8206 -8.975
lradius 59.7237
lwrist 7.12956
lhand -4.55677 16.8256
lfingers 7.12502
lthumb 21.2192 45.6842
rfemur -90.7788 -9.90179 33.9469
rtibia 88.4094
rfoot -21.8495 -31.8802
rtoes 20.1946
lfemur -91.3597 22.6667 -23.0839
ltibia 85.1419
lfoot -16.9107 -8.49459
ltoes -15.2493
354
root 14.654 14.3408 4.2855 -171.471 -86.6888 200.841
lowerback 44.5299 -0.00588441 1.21726
upperback 19.0535 -2.56504 3.38583
thorax 0.766899 -2.53544 3.86197
lowerneck -5.21482 -23.577 -9.5261
upperneck 3.91471 -35.1311 36.5499
head 11.363 -16.2142 7.64074
rclavicle 4.13472e-014 -1.41634e-014
rhumerus 67.4654 -17.5789 -99.9189
rradius 107.477
rwrist -89.7274
rhand -6.19269 30.3742
rfingers 7.12502
rthumb 19.6471 1.34705
lclavicle 4.13472e-014 -1.41634e-014
lhumerus 74.8644 -27.8583 -10.1617
lradius 60.85
lwrist 7.7835
lhand -5.20055 16.3294
lfingers 7.12502
lthumb 20.6007 45.2563
rfemur -90.871 -9.00895 33.4167
rtibia 89.2353
rfoot -22.9054 -32.7935
rtoes 20.9751
lfemur -91.8834 22.5678 -22.4676
ltibia 85.6821
lfoot -16.2674 -9.22577
ltoes -12.4138
355
root 14.7258 14.2545 4.22868 -177.701 -87.3015 206.727
lowerback 44.5817 0.149463 0.888473
upperback 19.1499 -2.50462 3.36993
thorax 0.861189 -2.53043 3.9887
lowerneck -2.79429 -24.012 -9.5743
upperneck 1.53888 -35.0545 37.9698
head 10.4576 -16.7821 8.35271
rclavicle -7.95139e-015 2.48481e-016
rhumerus 67.8376 -18.2426 -100.339
rradius 107.78
rwrist -87.7893
rhand -7.79235 31.0912
rfingers 7.12502
rthumb 18.1086 1.91414
lclavicle -7.95139e-015 2.48481e-016
lhumerus 74.3271 -26.9131 -10.943
lradius 61.9695
lwrist 8.29011
lhand -5.87492 15.7451
lfingers 7.12502
lthumb 19.9526 44.7408
rfemur -90.957 -8.01818 32.6669
rtibia 90.0677
rfoot -22.4996 -34.5381
rtoes 18.7275
lfemur -92.5505 23.0505 -22.6782
ltibia 86.1878
lfoot -15.646 -10.596
ltoes -9.61583
356
root 14.774 14.0983 4.18658 -188.953 -87.9063 217.515
lowerback 44.7392 0.265711 0.660127
upperback 19.2404 -2.45419 3.42001
thorax 0.925362 -2.5319 4.14155
lowerneck -0.452548 -24.6885 -8.7543
upperneck -0.857979 -35.0844 38.7108
head 9.24459 -17.4161 8.76854
rclavicle 1.19271e-014 -9.49197e-015
rhumerus 68.7703 -16.9639 -104.7
rradius 108.369
rwrist -84.3694
rhand -6.67356 28.2607
rfingers 7.12502
rthumb 19.1848 -0.813092
lclavicle 1.19271e-014 -9.49197e-015
lhumerus 73.9276 -26.0203 -11.5878
lradius 62.865
lwrist 8.94453
lhand -6.39699 15.7709
lfingers 7.12502
lthumb 19.4507 44.8181
rfemur -91.7278 -8.74482 33.5599
rtibia 91.3102
rfoot -20.5947 -35.2019
rtoes 14.0517
lfemur -93.0062 22.478 -21.562
ltibia 87.2125
lfoot -15.4394 -10.9162
ltoes -7.45657
357
root 14.8363 14.0084 4.13553 -210.993 -88.4293 238.715
lowerback 45.313 0.325686 0.538791
upperback 19.3476 -2.45213 3.46038
thorax 0.911273 -2.55942 4.25689
lowerneck -0.534952 -24.7011 -8.82803
upperneck -0.838 -35.1114 38.5962
head 9.2545 -17.4266 8.71602
rclavicle 5.725e-014 -6.71395e-014
rhumerus 69.5487 -16.7644 -106.823
rradius 108.504
rwrist -82.2159
rhand -6.45916 26.0752
rfingers 7.12502
rthumb 19.3909 -2.97792
lclavicle 5.725e-014 -6.71395e-014
lhumerus 73.511 -25.1303 -12.2815
lradius 63.5092
lwrist 9.85105
lhand -6.98861 15.2886
lfingers 7.12502
lthumb 18.8818 44.3921
rfemur -91.6254 -9.20356 34.0269
rtibia 92.2732
rfoot -20.4815 -35.6516
rtoes 13.0152
lfemur -93.2985 22.7946 -21.4829
ltibia 87.9732
lfoot -14.919 -11.8788
ltoes -7.23008
358
root 14.8951 13.8943 4.08356 -240.535 -88.5519 267.434
lowerback 45.9072 0.423279 0.356426
upperback 19.384 -2.41891 3.44401
thorax 0.812019 -2.56662 4.3344
lowerneck -0.31204 -24.6815 -8.96201
upperneck -0.992775 -35.0866 38.7895
head 9.23844 -17.4761 8.81981
rclavicle -2.54444e-014 -1.15295e-014
rhumerus 69.723 -18.9047 -104.156
rradius 107.767
rwrist -81.7471
rhand -8.63871 26.5646
rfingers 7.12502
rthumb 17.2942 -2.68589
lclavicle -2.54444e-014 -1.15295e-014
lhumerus 72.8472 -24.2491 -12.8341
lradius 64.0425
lwrist 10.3599
lhand -6.41519 13.8984
lfingers 7.12502
lthumb 19.4332 42.9473
rfemur -91.6644 -9.56375 34.4499
rtibia 93.3301
rfoot -21.3447 -35.9879
rtoes 13.9865
lfemur -93.3216 22.6943 -20.8108
ltibia 88.7695
lfoot -14.7806 -12.3508
ltoes -6.73818
359
root 14.9381 13.7581 4.03157 -280.402 -88.2139 306.426
lowerback 46.555 0.329005 0.357669
upperback 19.3663 -2.51074 3.55816
thorax 0.654349 -2.62522 4.50682
lowerneck 0.0795508 -24.7683 -9.21012
upperneck -1.28935 -35.1266 38.903
head 9.15884 -17.5865 8.90736
rclavicle -4.92986e-014 -5.26779e-015
rhumerus 69.5114 -19.9744 -102.477
rradius 107.078
rwrist -79.6237
rhand -9.70826 26.6004
rfingers 7.12502
rthumb 16.2646 -2.73739
lclavicle -4.92986e-014 -5.26779e-015
lhumerus 72.1411 -23.3679 -13.0765
lradius 64.4536
lwrist 10.5461
lhand -5.32635 13.2756
lfingers 7.12502
lthumb 20.4798 42.2155
rfemur -91.8474 -10.5175 35.0757
rtibia 94.4914
rfoot -22.375 -36.1965
rtoes 14.9856
lfemur -93.369 22.3154 -20.1026
ltibia 89.5677
lfoot -14.4151 -13.1408
ltoes -5.40271
360
root 15.0065 13.6792 3.97207 -291.103 -87.6547 316.398
lowerback 46.8889 0.463949 0.181584
upperback 19.4008 -2.42788 3.57362
thorax 0.614819 -2.60809 4.59003
lowerneck 0.462886 -24.9217 -9.3957
upperneck -1.57162 -35.2467 38.945
head 9.0728 -17.7299 8.94192
rclavicle 1.98785e-014 2.62644e-014
rhumerus 69.2558 -20.555 -101.583
rradius 106.298
rwrist -76.7764
rhand -10.356 26.7939
rfingers 7.12502
rthumb 15.6408 -2.59381
lclavicle 1.98785e-014 2.62644e-014
lhumerus 71.6275 -22.6504 -13.5612
lradius 64.9599
lwrist 11.6534
lhand -6.44014 14.0981
lfingers 7.12502
lthumb 19.4092 43.1494
rfemur -91.6583 -10.3888 35.24
rtibia 95.268
rfoot -23.4763 -36.4818
rtoes 15.719
lfemur -93.3534 22.3389 -19.5125
ltibia 90.0762
lfoot -14.0086 -13.7072
ltoes -5.25205
361
root 15.0702 13.5755 3.9209 -299.924 -87.01 324.562
lowerback 48.0454 0.435289 0.209092
upperback 18.5938 -2.42146 3.58941
thorax 0.564138 -2.62568 4.54765
lowerneck 0.749238 -25.1368 -9.22429
upperneck -1.91769 -35.3877 38.8266
head 8.86947 -17.8853 8.88296
rclavicle -1.35174e-014 2.71838e-014
rhumerus 68.8757 -21.4059 -100.222
rradius 105.594
rwrist -74.2423
rhand -11.1794 26.3832
rfingers 7.12502
rthumb 14.8477 -3.06479
lclavicle -1.35174e-014 2.71838e-014
lhumerus 71.134 -21.9304 -14.0678
lradius 65.4755
lwrist 13.0324
lhand -7.33161 15.2238
lfingers 7.12502
lthumb 18.5519 44.3591
rfemur -91.8458 -10.649 35.6478
rtibia 96.2165
rfoot -24.1739 -36.1491
rtoes 16.0049
lfemur -93.6024 22.1642 -18.9281
ltibia 90.7363
lfoot -13.76 -14.1047
ltoes -5.43502
362
root 15.1304 13.4686 3.87678 -302.549 -86.315 326.498
lowerback 48.29 0.484662 0.245865
upperback 18.6419 -2.36003 3.59818
thorax 0.578984 -2.60553 4.5218
lowerneck 0.829673 -25.3288 -9.00219
upperneck -2.05236 -35.5371 38.4724
head 8.69949 -17.987 8.72478
rclavicle 2.3059e-014 -1.11568e-014
rhumerus 68.2992 -22.1808 -98.625
rradius 104.857
rwrist -71.8111
rhand -11.5995 25.609
rfingers 7.12502
rthumb 14.4429 -3.86842
lclavicle 2.3059e-014 -1.11568e-014
lhumerus 70.2585 -20.948 -14.0837
lradius 65.9937
lwrist 12.8578
lhand -5.08176 15.6275
lfingers 7.12502
lthumb 20.7149 44.5419
rfemur -91.9773 -10.8362 36.2164
rtibia 97.1627
rfoot -24.6252 -36.2409
rtoes 16.4259
lfemur -93.8302 22.089 -18.1324
ltibia 91.4433
lfoot -13.5685 -14.5133
ltoes -5.41447
363
root 15.18 13.3481 3.82601 -303.189 -85.8125 326.316
lowerback 48.6808 0.747124 -0.0420031
upperback 18.6176 -2.18773 3.54204
thorax 0.486751 -2.54759 4.54692
lowerneck 1.05817 -25.3755 -8.72457
upperneck -2.0058 -35.5573 38.1607
head 8.53699 -18.0202 8.64622
rclavicle 2.38542e-015 -9.03228e-015
rhumerus 67.2781 -22.8719 -96.8798
rradius 103.949
rwrist -68.9996
rhand -11.2479 25.7581
rfingers 7.12502
rthumb 14.7817 -3.69478
lclavicle 2.38542e-015 -9.03228e-015
lhumerus 69.4626 -20.2069 -14.3119
lradius 66.1984
lwrist 12.0069
lhand -3.79723 14.5163
lfingers 7.12502
lthumb 21.9487 43.2911
rfemur -92.0003 -10.8595 36.6688
rtibia 98.2617
rfoot -24.9426 -37.8503
rtoes 16.6587
lfemur -93.9411 22.2532 -17.3879
ltibia 92.3158
lfoot -13.6113 -14.9468
ltoes -7.07895
364
root 15.2295 13.2135 3.77429 -306.957 -85.574 329.433
lowerback 48.8484 1.1016 -0.704837
upperback 18.5334 -2.03509 3.49024
thorax 0.363994 -2.50911 4.75703
lowerneck 1.4319 -25.3862 -8.5216
upperneck -1.96944 -35.5324 37.905
head 8.36713 -18.0456 8.6262
rclavicle 1.03368e-014 7.43105e-014
rhumerus 65.541 -23.379 -94.3167
rradius 103.001
rwrist -65.5144
rhand -11.2068 26.7313
rfingers 7.12502
rthumb 14.8213 -2.71869
lclavicle 1.03368e-014 7.43105e-014
lhumerus 68.9064 -19.7832 -14.6149
lradius 66.1957
lwrist 11.8926
lhand -4.37968 14.018
lfingers 7.12502
lthumb 21.3893 42.8574
rfemur -92.4997 -11.3539 37.1521
rtibia 99.4335
rfoot -25.836 -37.4903
rtoes 16.538
lfemur -94.2687 22.2683 -17.0718
ltibia 93.2332
lfoot -13.75 -15.1756
ltoes -9.17233
365
root 15.2834 13.0862 3.72554 -308.32 -85.1497 330.223
lowerback 48.9719 1.26282 -0.982536
upperback 18.3445 -1.92322 3.41864
thorax 0.130024 -2.45255 4.7812
lowerneck 1.98084 -25.4729 -8.35143
upperneck -2.09739 -35.5282 37.5513
head 8.09754 -18.1156 8.60073
rclavicle -5.80451e-014 2.52953e-014
rhumerus 63.7692 -23.704 -91.6149
rradius 101.451
rwrist -62.0724
rhand -12.72 28.0612
rfingers 7.12502
rthumb 13.3631 -1.49032
lclavicle -5.80451e-014 2.52953e-014
lhumerus 68.2621 -19.3513 -14.5718
lradius 66.5134
lwrist 12.215
lhand -3.59376 15.5193
lfingers 7.12502
lthumb 22.144 44.2711
rfemur -92.8913 -11.5303 37.6778
rtibia 100.48
rfoot -25.7622 -39.0902
rtoes 14.7524
lfemur -94.6672 22.3139 -16.4933
ltibia 94.0879
lfoot -13.7616 -15.4473
ltoes -10.2286
366
root 15.3342 12.9775 3.67039 -307.375 -84.5006 328.564
lowerback 49.1999 1.43019 -1.03948
upperback 18.1944 -1.72646 3.49538
thorax -0.0815905 -2.36473 4.83054
lowerneck 2.70472 -25.6375 -8.10302
upperneck -2.65256 -35.5057 37.3719
head 7.68699 -18.2574 8.65504
rclavicle 6.36111e-015 7.28049e-015
rhumerus 62.3441 -23.4939 -88.8246
rradius 100.097
rwrist -58.7355
rhand -14.5679 28.3105
rfingers 7.12502
rthumb 11.5815 -1.34948
lclavicle 6.36111e-015 7.28049e-015
lhumerus 68.0154 -19.0513 -14.1603
lradius 66.1281
lwrist 11.8604
lhand -2.79805 15.5546
lfingers 7.12502
lthumb 22.9078 44.2138
rfemur -92.8875 -11.6789 38.4969
rtibia 101.363
rfoot -25.6069 -39.5794
rtoes 14.7122
lfemur -94.8144 22.4882 -15.5658
ltibia 94.8505
lfoot -13.6785 -15.8569
ltoes -11.1973
